<svg xmlns="http://www.w3.org/2000/svg" viewBox="0 0 120 120"><defs><style>.cls-1{isolation:isolate;}.cls-2{fill:#c7c8ca;}.cls-3{fill:#58595b;}.cls-4,.cls-8{fill:#27aae1;}.cls-5,.cls-7{fill:#5fbb46;}.cls-6,.cls-9{fill:#bc4a31;}.cls-11,.cls-7,.cls-8,.cls-9{mix-blend-mode:multiply;}.cls-10{fill:#d1d3d4;}.cls-11{fill:#bcbec0;opacity:0.35;}.cls-12{font-size:20px;fill:#414042;font-family:PTSans-Bold, PT Sans;font-weight:700;}.cls-13{letter-spacing:-0.03em;}.cls-14{letter-spacing:-0.01em;}.cls-15{letter-spacing:0em;}</style></defs><g class="cls-1"><g id="Layer_5" data-name="Layer 5"><path class="cls-2" d="M75.5,73.36a3.2,3.2,0,0,1,1.7-2.83l13.49-6a1.2,1.2,0,0,0,.58-1V53.11a1.21,1.21,0,0,0-1.21-1.2H78.72A2.93,2.93,0,0,1,75.52,49V48a3.19,3.19,0,0,1,3.2-3.22H95.29A3.21,3.21,0,0,1,98.5,48V66.43a3.19,3.19,0,0,1-1.62,2.78L75.5,80.61Z"/><path class="cls-3" d="M95.29,45.76A2.21,2.21,0,0,1,97.5,48V66.43a2.23,2.23,0,0,1-1.12,1.92L76.5,79V73.36a2.2,2.2,0,0,1,1.17-1.94l13.43-6a2.2,2.2,0,0,0,1.17-1.94V53.11a2.21,2.21,0,0,0-2.21-2.2H78.72A2,2,0,0,1,76.52,49V48a2.2,2.2,0,0,1,2.2-2.21H95.29m0-2H78.72A4.2,4.2,0,0,0,74.52,48v1a3.93,3.93,0,0,0,4.2,3.87H90.06a.2.2,0,0,1,.21.2V63.45a.21.21,0,0,1-.08.16l-13.34,6-.06,0-.06,0a4.2,4.2,0,0,0-2.23,3.71v8.92l2.94-1.57,19.88-10.6h0l0,0a4.2,4.2,0,0,0,2.13-3.65V48a4.21,4.21,0,0,0-4.21-4.2Z"/><rect class="cls-4" x="29.98" y="11.8" width="12.55" height="36.44"/><rect class="cls-5" x="45.52" y="15.57" width="12.55" height="31.41"/><rect class="cls-6" x="61.06" y="20.19" width="12.55" height="26.38"/><polygon class="cls-7" points="55.81 15.57 55.81 33.24 45.52 33.24 45.52 35.51 55.81 35.51 55.81 46.98 58.08 46.98 58.08 15.57 55.81 15.57"/><polygon class="cls-8" points="40.27 33.38 29.98 33.38 29.98 35.64 40.27 35.64 40.27 48.24 42.54 48.24 42.54 11.8 40.27 11.8 40.27 33.38"/><polygon class="cls-9" points="71.69 33.19 61.06 33.19 61.06 35.12 71.69 35.12 71.69 46.56 73.61 46.56 73.61 20.19 71.69 20.19 71.69 33.19"/><path class="cls-10" d="M35.06,109.2A13.57,13.57,0,0,1,21.5,95.65V35.48H82.09V96.9c0,6.56-6.33,12.3-13.55,12.3Z"/><path class="cls-3" d="M81.09,36.48V96.9c0,5.68-5.62,11.3-12.55,11.3H35.06A12.55,12.55,0,0,1,22.5,95.65V36.48H81.09m2-2H20.5V95.65A14.57,14.57,0,0,0,35.06,110.2H68.54c7.75,0,14.55-6.21,14.55-13.3V34.48Z"/><path class="cls-11" d="M81.09,36.12H73.38V78.57h0V96.9c0,5.68-2.89,11.3-6.46,11.3h2.71c5.37,0,11.46-5.62,11.46-11.3V76.83h0V49.27"/><text class="cls-12" transform="translate(28.46 60.11)">Data<tspan x="0" y="18">Vi</tspan><tspan class="cls-13" x="17.42" y="18">z</tspan><tspan class="cls-14" x="0" y="36">C</tspan><tspan x="10.96" y="36">a</tspan><tspan class="cls-15" x="20.88" y="36">f</tspan><tspan x="27.2" y="36">e</tspan></text></g></g></svg>